<svg width="17" height="17" viewBox="0 0 17 17" fill="none" xmlns="http://www.w3.org/2000/svg">
<path d="M16.4737 13.5408C16.7147 13.8875 16.6758 14.3958 16.3863 14.6847C14.9446 16.1127 11.9233 17 8.50171 17C5.08013 17 2.0588 16.1127 0.617112 14.687C0.325665 14.4004 0.286806 13.8875 0.529678 13.5432C0.770607 13.1965 1.20195 13.1503 1.49145 13.4392C2.84182 14.7794 5.98555 15.3802 8.50171 15.3802C11.0179 15.3802 14.1616 14.7794 15.512 13.4392C15.8015 13.1503 16.2328 13.1965 16.4737 13.5408ZM16.9964 5.10208L16.293 12.159C16.2794 12.2954 16.2231 12.4201 16.1357 12.508C14.7523 13.899 11.8281 14.7632 8.49976 14.7632C5.17145 14.7632 2.24921 13.899 0.863869 12.5056C0.774492 12.4155 0.720089 12.2931 0.706488 12.1567L0.00313109 5.09977C-0.0182416 4.88256 0.0711353 4.66997 0.230459 4.56368C0.389783 4.45739 0.591853 4.47356 0.735633 4.6099C0.745348 4.61914 1.93833 5.70518 3.42277 5.70518C5.36186 5.70518 6.92595 3.90281 8.07425 0.34892C8.14226 0.140954 8.3113 0 8.49976 0C8.68823 0 8.85922 0.138644 8.92528 0.34892C10.0716 3.90281 11.6357 5.70749 13.5748 5.70749C15.069 5.70749 16.2484 4.62145 16.262 4.61221C16.4057 4.47818 16.6059 4.4597 16.7652 4.56599C16.9284 4.6746 17.0197 4.88718 16.9964 5.10208ZM4.08532 10.4884C4.08532 9.9546 3.76473 9.52249 3.37031 9.52249C2.97394 9.52249 2.65529 9.9546 2.65529 10.4884C2.65529 11.0222 2.97588 11.4543 3.37031 11.4543C3.76279 11.4543 4.08532 11.0222 4.08532 10.4884V10.4884ZM10.1649 10.4884L8.78732 8.0159L7.40975 10.4884L8.01402 11.5721L8.78732 12.9609L9.56063 11.5721L10.1649 10.4884ZM14.8125 10.4884C14.8125 9.95229 14.49 9.52018 14.0936 9.52018C13.6972 9.52018 13.3747 9.9546 13.3747 10.4884C13.3747 11.0222 13.6972 11.4566 14.0936 11.4566C14.4919 11.4566 14.8125 11.0245 14.8125 10.4884Z" fill="black"/>
</svg>
