<svg width="17" height="17" viewBox="0 0 17 17" fill="none" xmlns="http://www.w3.org/2000/svg">
<path d="M3.82937 3.75209L2.5296 2.08104L3.55931 0.755858C3.74 0.526574 4.02949 0.526574 4.21017 0.755858L5.32926 2.19762L3.82937 3.75209ZM14.4995 2.04218L13.499 0.755858C13.3183 0.524631 13.0288 0.524631 12.8481 0.755858L11.7018 2.2326L13.1706 3.75209L14.4995 2.04218ZM17 1.25717V9.82809C17 11.7867 13.1959 13.3762 8.5 13.3762C3.80411 13.3762 0 11.7848 0 9.82615V1.25717C0 0.901589 0.225371 0.666476 0.464343 0.666476C0.577029 0.666476 0.691657 0.720882 0.784914 0.841353L2.14103 2.58624L3.79246 4.70808L5.7256 2.70671L8.21051 0.130186C8.296 0.0427478 8.39509 0 8.5 0C8.60491 0 8.704 0.0427478 8.78949 0.130186L11.3113 2.73974L13.2114 4.70614L16.2151 0.843296C16.3083 0.722825 16.4249 0.668419 16.5357 0.668419C16.7727 0.666476 17 0.903532 17 1.25717ZM2.21874 8.4796L1.90011 7.67128C1.83211 7.49834 1.63977 7.49834 1.57177 7.67128L1.2512 8.4796C1.22594 8.54761 1.22594 8.62921 1.2512 8.69528L1.57177 9.5036C1.63977 9.67653 1.83211 9.67653 1.90011 9.5036L2.22069 8.69528C2.24594 8.62533 2.24594 8.54761 2.21874 8.4796V8.4796ZM9.68514 9.45114L8.65154 7.5372C8.57771 7.40313 8.42423 7.40313 8.34846 7.5372L7.31486 9.45114C7.27017 9.5308 7.27017 9.63962 7.31486 9.72123L8.34846 11.6352C8.42229 11.7692 8.57577 11.7692 8.65154 11.6352L9.68514 9.72123C9.72983 9.63573 9.72983 9.52886 9.68514 9.45114ZM15.7838 8.4796L15.4632 7.67128C15.3952 7.49834 15.2029 7.49834 15.1349 7.67128L14.8162 8.4796C14.791 8.54761 14.791 8.62921 14.8162 8.69528L15.1368 9.5036C15.2048 9.67653 15.3971 9.67653 15.4651 9.5036L15.7857 8.69528C15.809 8.62533 15.809 8.54761 15.7838 8.4796ZM10.4312 14.2603C9.81143 14.3205 9.16251 14.3516 8.5 14.3516C7.83554 14.3516 7.18857 14.3205 6.5688 14.2603C3.39417 13.9533 0.891771 12.9118 0.155429 11.5885C0.0893714 11.47 0.0388571 11.3515 0 11.2291V13.4539C0 15.4125 3.80411 17 8.5 17C13.1959 17 17 15.4125 17 13.4539V11.2271C16.9631 11.3476 16.9126 11.4681 16.8446 11.5866C16.1102 12.9118 13.6078 13.9552 10.4312 14.2603Z" fill="black"/>
</svg>
