<svg width="17" height="17" viewBox="0 0 17 17" fill="none" xmlns="http://www.w3.org/2000/svg">
<path d="M7.59823 7.85875C7.88964 6.35446 8.02563 5.28874 8.30538 4.27528C9.16017 1.16446 11.2272 -0.376185 13.8324 0.0782819C16.0141 0.457761 17.271 2.29608 16.9504 4.87972C16.3035 10.0606 13.5779 13.6827 10.2481 16.8322C9.93337 17.1299 9.69636 16.964 9.40689 16.8481C6.2733 15.587 3.48357 13.6918 1.33298 10.6946C-0.601955 7.99963 -0.41157 5.40917 1.78175 3.49814C3.20964 2.25518 4.43938 2.3597 5.62249 3.89126C6.03046 4.42071 6.36461 5.03651 6.67738 5.65231C6.96296 6.21358 7.17278 6.82257 7.59823 7.85875ZM8.31509 10.331C7.65263 9.8993 7.17083 8.69497 6.39763 9.85613C5.7546 10.8219 6.30827 11.5763 6.89108 12.2534C7.39813 12.8442 8.02563 13.2033 8.67061 13.5441C8.9931 13.7145 9.23982 13.7077 9.50597 13.426C10.3297 12.5557 11.0543 11.6263 11.2777 10.2788C11.4021 9.52664 11.2836 8.90857 10.691 8.58817C10.0966 8.2655 9.46712 8.31549 9.01835 8.96538C8.7522 9.35167 8.57347 9.82204 8.31509 10.331Z" fill="black"/>
</svg>
