<svg width="108" height="90" viewBox="0 0 108 90" fill="none" xmlns="http://www.w3.org/2000/svg">
<path d="M54 0.734794L64.3813 11.9144L64.6021 12.1521L64.9092 12.0474L80.6016 6.69308L82.8698 20.611L82.9307 20.9848L83.3071 21.0274L100.003 22.917L93.6623 35.8231L93.466 36.2226L93.8401 36.4638L107.077 45L93.8401 53.5362L93.466 53.7774L93.6623 54.1769L100.003 67.083L83.3071 68.9726L82.9307 69.0152L82.8698 69.389L80.6016 83.3069L64.9092 77.9526L64.6021 77.8479L64.3813 78.0856L54 89.2652L43.6187 78.0856L43.3979 77.8479L43.0908 77.9526L27.3983 83.3069L25.1302 69.389L25.0693 69.0152L24.6929 68.9726L7.99658 67.083L14.3377 54.1769L14.534 53.7774L14.1599 53.5362L0.922601 45L14.1599 36.4638L14.534 36.2226L14.3377 35.8231L7.99658 22.917L24.6929 21.0274L25.0693 20.9848L25.1302 20.611L27.3983 6.69308L43.0908 12.0474L43.3979 12.1521L43.6187 11.9144L54 0.734794Z" fill="#333333" stroke="#FEFEFE"/>
</svg>
