<svg width="17" height="17" viewBox="0 0 17 17" fill="none" xmlns="http://www.w3.org/2000/svg">
<path d="M2.44676 8.07512C2.80553 7.80481 3.09459 7.49031 3.32413 7.11971C3.59958 6.67771 3.6982 6.18301 3.73391 5.67811C3.77982 5.06101 4.02126 4.5663 4.54326 4.2178C4.84422 4.0189 5.18768 3.973 5.53285 3.9458C6.62956 3.8625 7.44911 3.3423 8.01872 2.4107C8.02382 2.4022 8.03572 2.3954 8.05443 2.3767C8.23806 2.7269 8.35708 3.0958 8.4251 3.48C8.60533 4.5068 8.437 5.47581 7.915 6.38191C7.86909 6.46351 7.86739 6.50941 7.9405 6.58251C8.94199 7.57871 9.94008 8.57832 10.9365 9.58132C11.0334 9.67992 11.1065 9.69692 11.2374 9.62552C13.5771 8.34372 16.5356 9.80572 16.9505 12.4458C17.2991 14.6643 15.7688 16.6975 13.5448 16.9712C11.4891 17.2245 9.55411 15.7761 9.21915 13.7412C9.07292 12.8589 9.20724 12.0259 9.62722 11.2388C9.68333 11.1368 9.67653 11.0756 9.59322 10.994C8.57472 9.98252 7.55793 8.96762 6.54624 7.94932C6.46802 7.87112 6.41702 7.89492 6.3439 7.93742C5.65187 8.33182 4.90373 8.51202 4.10968 8.48822C3.57748 8.47122 3.06568 8.35562 2.57599 8.14482C2.53518 8.12782 2.49777 8.10232 2.44676 8.07512ZM13.0721 11.1147C11.9567 11.1317 11.1048 12.0106 11.1201 13.1292C11.132 14.1713 12.0383 15.057 13.0738 15.0434C14.2011 15.0264 15.0649 14.1356 15.0478 13.0068C15.0325 11.9715 14.1195 11.0977 13.0721 11.1147ZM0 4.2144C0.0323061 2.069 1.5575 0.324791 3.7118 0.0391897C4.92413 -0.120611 6.01404 0.21089 6.96622 0.986093C7.05464 1.05749 7.07504 1.12889 7.05634 1.23429C6.91521 2.0282 6.30139 2.5688 5.42063 2.6317C4.45144 2.6997 3.64549 3.0635 3.04188 3.8404C2.6576 4.3334 2.48247 4.89951 2.43486 5.50981C2.39235 6.04191 2.25123 6.51791 1.82785 6.88511C1.36196 7.29141 1.21403 7.28461 0.850161 6.79331C0.289055 6.03511 0.0119023 5.18171 0 4.2144V4.2144Z" fill="black"/>
</svg>
